<svg xmlns="http://www.w3.org/2000/svg" xmlns:xlink="http://www.w3.org/1999/xlink" width="1150" height="537.62"><rect width="1150" height="537.62" rx="5" ry="5" class="a"/><svg y="0%" x="0%"><circle cx="20" cy="20" r="6" fill="#ff5f58"/><circle cx="40" cy="20" r="6" fill="#ffbd2e"/><circle cx="60" cy="20" r="6" fill="#18c132"/></svg><svg height="477.62" viewBox="0 0 111 47.762" width="1110" x="15" xmlns="http://www.w3.org/2000/svg" xmlns:xlink="http://www.w3.org/1999/xlink" y="50"><style>@keyframes m{0%{transform:translateX(0)}.1%{transform:translateX(-222px)}21.9%{transform:translateX(-333px)}22.8%{transform:translateX(-444px)}23.6%{transform:translateX(-555px)}24.2%{transform:translateX(-666px)}25.4%{transform:translateX(-777px)}26.3%{transform:translateX(-888px)}27.4%{transform:translateX(-999px)}31.2%{transform:translateX(-1110px)}38.3%{transform:translateX(-1221px)}39.8%{transform:translateX(-1332px)}40.5%{transform:translateX(-1443px)}41.4%{transform:translateX(-1554px)}42.5%{transform:translateX(-1665px)}44%{transform:translateX(-1776px)}45.6%{transform:translateX(-1887px)}46%{transform:translateX(-1998px)}46.9%{transform:translateX(-2109px)}47.4%{transform:translateX(-2220px)}48.4%{transform:translateX(-2331px)}49.6%{transform:translateX(-2442px)}50.3%{transform:translateX(-2553px)}50.9%{transform:translateX(-2664px)}51.5%{transform:translateX(-2775px)}52.9%{transform:translateX(-2886px)}53.7%{transform:translateX(-2997px)}54.6%{transform:translateX(-3108px)}55.9%{transform:translateX(-3441px)}56%{transform:translateX(-3552px)}56.3%{transform:translateX(-3774px)}56.4%{transform:translateX(-3996px)}to{transform:translateX(-4218px)}}.a{fill:#282d35}.f{fill:#a8cc8c;font-weight:700;white-space:pre}.g,.h,.i,.j{fill:#b9c0cb;white-space:pre}.h,.i,.j{fill:#71bef2}.i,.j{fill:#a8cc8c}.j{fill:#dbab79}</style><g font-family="Monaco,Consolas,Menlo,'Bitstream Vera Sans Mono','Powerline Symbols',monospace" font-size="1.67"><defs><symbol id="1"><text y="1.67" class="f">$</text></symbol><symbol id="2"><text y="1.67" class="f">$</text><text x="2.004" y="1.67" class="g">memeasm</text></symbol><symbol id="3"><text y="1.67" class="f">$</text><text x="2.004" y="1.67" class="g">memeasm</text><text x="10.02" y="1.67" class="g">HelloWorld.memeasm</text></symbol><symbol id="4"><text x="2.004" y="1.67" class="h">__</text><text x="6.012" y="1.67" class="h">__</text><text x="61.122" y="1.67" class="h">_</text><text x="67.134" y="1.67" class="h">_</text></symbol><symbol id="5"><text x="1.002" y="1.67" class="h">|</text><text x="4.008" y="1.67" class="h">\/</text><text x="8.016" y="1.67" class="h">|</text><text x="32.064" y="1.67" class="h">/\</text><text x="60.12" y="1.67" class="h">|</text><text x="62.124" y="1.67" class="h">|</text><text x="66.132" y="1.67" class="h">|</text><text x="68.136" y="1.67" class="h">|</text></symbol><symbol id="6"><text x="1.002" y="1.67" class="h">|</text><text x="3.006" y="1.67" class="h">\</text><text x="6.012" y="1.67" class="h">/</text><text x="8.016" y="1.67" class="h">|</text><text x="10.02" y="1.67" class="h">___</text><text x="14.028" y="1.67" class="h">_</text><text x="16.032" y="1.67" class="h">__</text><text x="19.038" y="1.67" class="h">___</text><text x="25.05" y="1.67" class="h">___</text><text x="31.062" y="1.67" class="h">/</text><text x="34.068" y="1.67" class="h">\</text><text x="38.076" y="1.67" class="h">___</text><text x="42.084" y="1.67" class="h">___</text><text x="47.094" y="1.67" class="h">___</text><text x="51.102" y="1.67" class="h">_</text><text x="53.106" y="1.67" class="h">__</text><text x="56.112" y="1.67" class="h">___</text><text x="60.12" y="1.67" class="h">|</text><text x="62.124" y="1.67" class="h">|__</text><text x="66.132" y="1.67" class="h">|</text><text x="68.136" y="1.67" class="h">|_</text><text x="73.146" y="1.67" class="h">_</text></symbol><symbol id="7"><text x="1.002" y="1.67" class="h">|</text><text x="3.006" y="1.67" class="h">|\/|</text><text x="8.016" y="1.67" class="h">|/</text><text x="11.022" y="1.67" class="h">_</text><text x="13.026" y="1.67" class="h">\</text><text x="15.03" y="1.67" class="h">&apos;_</text><text x="18.036" y="1.67" class="h">`</text><text x="20.04" y="1.67" class="h">_</text><text x="22.044" y="1.67" class="h">\</text><text x="24.048" y="1.67" class="h">/</text><text x="26.052" y="1.67" class="h">_</text><text x="28.056" y="1.67" class="h">\</text><text x="30.06" y="1.67" class="h">/</text><text x="32.064" y="1.67" class="h">/\</text><text x="35.07" y="1.67" class="h">\</text><text x="37.074" y="1.67" class="h">/</text><text x="39.078" y="1.67" class="h">__/</text><text x="43.086" y="1.67" class="h">__|/</text><text x="48.096" y="1.67" class="h">_</text><text x="50.1" y="1.67" class="h">\</text><text x="52.104" y="1.67" class="h">&apos;_</text><text x="55.11" y="1.67" class="h">`</text><text x="57.114" y="1.67" class="h">_</text><text x="59.118" y="1.67" class="h">\|</text><text x="62.124" y="1.67" class="h">&apos;_</text><text x="65.13" y="1.67" class="h">\|</text><text x="68.136" y="1.67" class="h">|</text><text x="70.14" y="1.67" class="h">|</text><text x="72.144" y="1.67" class="h">|</text><text x="74.148" y="1.67" class="h">|</text></symbol><symbol id="8"><text x="1.002" y="1.67" class="h">|</text><text x="3.006" y="1.67" class="h">|</text><text x="6.012" y="1.67" class="h">|</text><text x="8.016" y="1.67" class="h">|</text><text x="11.022" y="1.67" class="h">__/</text><text x="15.03" y="1.67" class="h">|</text><text x="17.034" y="1.67" class="h">|</text><text x="19.038" y="1.67" class="h">|</text><text x="21.042" y="1.67" class="h">|</text><text x="23.046" y="1.67" class="h">|</text><text x="26.052" y="1.67" class="h">__//</text><text x="31.062" y="1.67" class="h">____</text><text x="36.072" y="1.67" class="h">\\__</text><text x="41.082" y="1.67" class="h">\__</text><text x="45.09" y="1.67" class="h">\</text><text x="48.096" y="1.67" class="h">__/</text><text x="52.104" y="1.67" class="h">|</text><text x="54.108" y="1.67" class="h">|</text><text x="56.112" y="1.67" class="h">|</text><text x="58.116" y="1.67" class="h">|</text><text x="60.12" y="1.67" class="h">|</text><text x="62.124" y="1.67" class="h">|_)</text><text x="66.132" y="1.67" class="h">|</text><text x="68.136" y="1.67" class="h">|</text><text x="70.14" y="1.67" class="h">|_|</text><text x="74.148" y="1.67" class="h">|</text></symbol><symbol id="9"><text x="1.002" y="1.67" class="h">|_|</text><text x="6.012" y="1.67" class="h">|_|\___|_|</text><text x="17.034" y="1.67" class="h">|_|</text><text x="21.042" y="1.67" class="h">|_|\___/_/</text><text x="35.07" y="1.67" class="h">\_\___/___/\___|_|</text><text x="54.108" y="1.67" class="h">|_|</text><text x="58.116" y="1.67" class="h">|_|_.__/|_|\__,</text><text x="74.148" y="1.67" class="h">|</text></symbol><symbol id="10"><text x="2.004" y="1.67" class="g">A</text><text x="4.008" y="1.67" class="g">Meme-based</text><text x="15.03" y="1.67" class="g">programming</text><text x="27.054" y="1.67" class="g">language.</text><text x="70.14" y="1.67" class="h">__/</text><text x="74.148" y="1.67" class="h">|</text></symbol><symbol id="11"><text x="69.138" y="1.67" class="h">|___/</text></symbol><symbol id="12"><text y="1.67" class="g">For</text><text x="4.008" y="1.67" class="g">more</text><text x="9.018" y="1.67" class="g">information,</text><text x="22.044" y="1.67" class="g">a</text><text x="24.048" y="1.67" class="g">list</text><text x="29.058" y="1.67" class="g">of</text><text x="32.064" y="1.67" class="g">commands</text><text x="41.082" y="1.67" class="g">and</text><text x="45.09" y="1.67" class="g">code</text><text x="50.1" y="1.67" class="g">examples,</text><text x="60.12" y="1.67" class="g">please</text><text x="67.134" y="1.67" class="g">visit</text><text x="73.146" y="1.67" class="g">https://github.com/kammt/MemeAssembly.</text></symbol><symbol id="13"><text y="1.67" class="g">This</text><text x="5.01" y="1.67" class="g">is</text><text x="8.016" y="1.67" class="g">the</text><text x="12.024" y="1.67" class="g">MemeAssembly</text><text x="25.05" y="1.67" class="g">compiler</text><text x="34.068" y="1.67" class="g">v0.2,</text><text x="40.08" y="1.67" class="g">created</text><text x="48.096" y="1.67" class="g">by</text><text x="51.102" y="1.67" class="g">Tobias</text><text x="58.116" y="1.67" class="g">Kamm.</text></symbol><symbol id="14"><text y="1.67" class="i">File</text><text x="5.01" y="1.67" class="i">compiled</text><text x="14.028" y="1.67" class="i">successfully!</text></symbol><symbol id="15"><text y="1.67" class="j">Calling</text><text x="8.016" y="1.67" class="j">nasm...</text></symbol><symbol id="16"><text y="1.67" class="j">Linking...</text></symbol><symbol id="17"><text y="1.67" class="j">Running</text><text x="8.016" y="1.67" class="j">file...</text></symbol><symbol id="18"><text y="1.67" class="g">Hello</text><text x="6.012" y="1.67" class="g">World!</text></symbol><symbol id="a"><path fill="transparent" d="M0 0h111v23H0z"/></symbol><symbol id="b"><path fill="#6f7683" d="M0 0h1.102v2.171H0z"/></symbol></defs><path class="a" d="M0 0h111v47.762H0z"/><g style="animation-duration:16.639753s;animation-iteration-count:infinite;animation-name:m;animation-timing-function:steps(1,end)"><svg width="4329"><svg><use xlink:href="#a"/><use xlink:href="#b" x="-.004"/></svg><svg x="111"><use xlink:href="#a"/><use xlink:href="#b" x="-.004"/></svg><svg x="222"><use xlink:href="#a"/><use xlink:href="#b" x="1.996"/><use xlink:href="#1"/></svg><svg x="333"><use xlink:href="#a"/><use xlink:href="#b" x="2.996"/><text y="1.67" class="f">$</text><text x="2.004" y="1.67" class="g">m</text></svg><svg x="444"><use xlink:href="#a"/><use xlink:href="#b" x="3.996"/><text y="1.67" class="f">$</text><text x="2.004" y="1.67" class="g">me</text></svg><svg x="555"><use xlink:href="#a"/><use xlink:href="#b" x="4.996"/><text y="1.67" class="f">$</text><text x="2.004" y="1.67" class="g">mem</text></svg><svg x="666"><use xlink:href="#a"/><use xlink:href="#b" x="5.996"/><text y="1.67" class="f">$</text><text x="2.004" y="1.67" class="g">meme</text></svg><svg x="777"><use xlink:href="#a"/><use xlink:href="#b" x="6.996"/><text y="1.67" class="f">$</text><text x="2.004" y="1.67" class="g">memea</text></svg><svg x="888"><use xlink:href="#a"/><use xlink:href="#b" x="7.996"/><text y="1.67" class="f">$</text><text x="2.004" y="1.67" class="g">memeas</text></svg><svg x="999"><use xlink:href="#a"/><use xlink:href="#b" x="8.996"/><use xlink:href="#2"/></svg><svg x="1110"><use xlink:href="#a"/><use xlink:href="#b" x="9.996"/><use xlink:href="#2"/></svg><svg x="1221"><use xlink:href="#a"/><use xlink:href="#b" x="10.996"/><text y="1.67" class="f">$</text><text x="2.004" y="1.67" class="g">memeasm</text><text x="10.02" y="1.67" class="g">H</text></svg><svg x="1332"><use xlink:href="#a"/><use xlink:href="#b" x="11.996"/><text y="1.67" class="f">$</text><text x="2.004" y="1.67" class="g">memeasm</text><text x="10.02" y="1.67" class="g">He</text></svg><svg x="1443"><use xlink:href="#a"/><use xlink:href="#b" x="12.996"/><text y="1.67" class="f">$</text><text x="2.004" y="1.67" class="g">memeasm</text><text x="10.02" y="1.67" class="g">Hel</text></svg><svg x="1554"><use xlink:href="#a"/><use xlink:href="#b" x="13.996"/><text y="1.67" class="f">$</text><text x="2.004" y="1.67" class="g">memeasm</text><text x="10.02" y="1.67" class="g">Hell</text></svg><svg x="1665"><use xlink:href="#a"/><use xlink:href="#b" x="14.996"/><text y="1.67" class="f">$</text><text x="2.004" y="1.67" class="g">memeasm</text><text x="10.02" y="1.67" class="g">Hello</text></svg><svg x="1776"><use xlink:href="#a"/><use xlink:href="#b" x="15.996"/><text y="1.67" class="f">$</text><text x="2.004" y="1.67" class="g">memeasm</text><text x="10.02" y="1.67" class="g">HelloW</text></svg><svg x="1887"><use xlink:href="#a"/><use xlink:href="#b" x="16.996"/><text y="1.67" class="f">$</text><text x="2.004" y="1.67" class="g">memeasm</text><text x="10.02" y="1.67" class="g">HelloWo</text></svg><svg x="1998"><use xlink:href="#a"/><use xlink:href="#b" x="17.996"/><text y="1.67" class="f">$</text><text x="2.004" y="1.67" class="g">memeasm</text><text x="10.02" y="1.67" class="g">HelloWor</text></svg><svg x="2109"><use xlink:href="#a"/><use xlink:href="#b" x="18.996"/><text y="1.67" class="f">$</text><text x="2.004" y="1.67" class="g">memeasm</text><text x="10.02" y="1.67" class="g">HelloWorl</text></svg><svg x="2220"><use xlink:href="#a"/><use xlink:href="#b" x="19.996"/><text y="1.67" class="f">$</text><text x="2.004" y="1.67" class="g">memeasm</text><text x="10.02" y="1.67" class="g">HelloWorld</text></svg><svg x="2331"><use xlink:href="#a"/><use xlink:href="#b" x="20.996"/><text y="1.67" class="f">$</text><text x="2.004" y="1.67" class="g">memeasm</text><text x="10.02" y="1.67" class="g">HelloWorld.</text></svg><svg x="2442"><use xlink:href="#a"/><use xlink:href="#b" x="21.996"/><text y="1.67" class="f">$</text><text x="2.004" y="1.67" class="g">memeasm</text><text x="10.02" y="1.67" class="g">HelloWorld.m</text></svg><svg x="2553"><use xlink:href="#a"/><use xlink:href="#b" x="22.996"/><text y="1.67" class="f">$</text><text x="2.004" y="1.67" class="g">memeasm</text><text x="10.02" y="1.67" class="g">HelloWorld.me</text></svg><svg x="2664"><use xlink:href="#a"/><use xlink:href="#b" x="23.996"/><text y="1.67" class="f">$</text><text x="2.004" y="1.67" class="g">memeasm</text><text x="10.02" y="1.67" class="g">HelloWorld.mem</text></svg><svg x="2775"><use xlink:href="#a"/><use xlink:href="#b" x="24.996"/><text y="1.67" class="f">$</text><text x="2.004" y="1.67" class="g">memeasm</text><text x="10.02" y="1.67" class="g">HelloWorld.meme</text></svg><svg x="2886"><use xlink:href="#a"/><use xlink:href="#b" x="25.996"/><text y="1.67" class="f">$</text><text x="2.004" y="1.67" class="g">memeasm</text><text x="10.02" y="1.67" class="g">HelloWorld.memea</text></svg><svg x="2997"><use xlink:href="#a"/><use xlink:href="#b" x="26.996"/><text y="1.67" class="f">$</text><text x="2.004" y="1.67" class="g">memeasm</text><text x="10.02" y="1.67" class="g">HelloWorld.memeas</text></svg><svg x="3108"><use xlink:href="#a"/><use xlink:href="#b" x="27.996"/><use xlink:href="#3"/></svg><svg x="3219"><use xlink:href="#a"/><use xlink:href="#b" x="-.004" y="2.146"/><use xlink:href="#3"/></svg><svg x="3330"><use xlink:href="#a"/><use xlink:href="#b" x="-.004" y="28.198"/><use xlink:href="#3"/><use xlink:href="#4" y="2.171"/><use xlink:href="#5" y="4.342"/><use xlink:href="#6" y="6.513"/><use xlink:href="#7" y="8.684"/><use xlink:href="#8" y="10.855"/><use xlink:href="#9" y="13.026"/><use xlink:href="#10" y="15.197"/><use xlink:href="#11" y="17.368"/><use xlink:href="#12" y="21.71"/><use xlink:href="#13" y="23.881"/></svg><svg x="3441"><use xlink:href="#a"/><use xlink:href="#b" x="-.004" y="32.54"/><use xlink:href="#3"/><use xlink:href="#4" y="2.171"/><use xlink:href="#5" y="4.342"/><use xlink:href="#6" y="6.513"/><use xlink:href="#7" y="8.684"/><use xlink:href="#8" y="10.855"/><use xlink:href="#9" y="13.026"/><use xlink:href="#10" y="15.197"/><use xlink:href="#11" y="17.368"/><use xlink:href="#12" y="21.71"/><use xlink:href="#13" y="23.881"/><use xlink:href="#14" y="28.223"/><use xlink:href="#15" y="30.394"/></svg><svg x="3552"><use xlink:href="#a"/><use xlink:href="#b" x="-.004" y="34.711"/><use xlink:href="#3"/><use xlink:href="#4" y="2.171"/><use xlink:href="#5" y="4.342"/><use xlink:href="#6" y="6.513"/><use xlink:href="#7" y="8.684"/><use xlink:href="#8" y="10.855"/><use xlink:href="#9" y="13.026"/><use xlink:href="#10" y="15.197"/><use xlink:href="#11" y="17.368"/><use xlink:href="#12" y="21.71"/><use xlink:href="#13" y="23.881"/><use xlink:href="#14" y="28.223"/><use xlink:href="#15" y="30.394"/><use xlink:href="#16" y="32.565"/></svg><svg x="3663"><use xlink:href="#a"/><use xlink:href="#b" x="-.004" y="36.882"/><use xlink:href="#3"/><use xlink:href="#4" y="2.171"/><use xlink:href="#5" y="4.342"/><use xlink:href="#6" y="6.513"/><use xlink:href="#7" y="8.684"/><use xlink:href="#8" y="10.855"/><use xlink:href="#9" y="13.026"/><use xlink:href="#10" y="15.197"/><use xlink:href="#11" y="17.368"/><use xlink:href="#12" y="21.71"/><use xlink:href="#13" y="23.881"/><use xlink:href="#14" y="28.223"/><use xlink:href="#15" y="30.394"/><use xlink:href="#16" y="32.565"/><use xlink:href="#17" y="34.736"/></svg><svg x="3774"><use xlink:href="#a"/><use xlink:href="#b" x="-.004" y="39.053"/><use xlink:href="#3"/><use xlink:href="#4" y="2.171"/><use xlink:href="#5" y="4.342"/><use xlink:href="#6" y="6.513"/><use xlink:href="#7" y="8.684"/><use xlink:href="#8" y="10.855"/><use xlink:href="#9" y="13.026"/><use xlink:href="#10" y="15.197"/><use xlink:href="#11" y="17.368"/><use xlink:href="#12" y="21.71"/><use xlink:href="#13" y="23.881"/><use xlink:href="#14" y="28.223"/><use xlink:href="#15" y="30.394"/><use xlink:href="#16" y="32.565"/><use xlink:href="#17" y="34.736"/><use xlink:href="#18" y="36.907"/></svg><svg x="3885"><use xlink:href="#a"/><use xlink:href="#b" x="-.004" y="39.053"/><use xlink:href="#3"/><use xlink:href="#4" y="2.171"/><use xlink:href="#5" y="4.342"/><use xlink:href="#6" y="6.513"/><use xlink:href="#7" y="8.684"/><use xlink:href="#8" y="10.855"/><use xlink:href="#9" y="13.026"/><use xlink:href="#10" y="15.197"/><use xlink:href="#11" y="17.368"/><use xlink:href="#12" y="21.71"/><use xlink:href="#13" y="23.881"/><use xlink:href="#14" y="28.223"/><use xlink:href="#15" y="30.394"/><use xlink:href="#16" y="32.565"/><use xlink:href="#17" y="34.736"/><use xlink:href="#18" y="36.907"/></svg><svg x="3996"><use xlink:href="#a"/><use xlink:href="#b" x="1.996" y="39.053"/><use xlink:href="#3"/><use xlink:href="#4" y="2.171"/><use xlink:href="#5" y="4.342"/><use xlink:href="#6" y="6.513"/><use xlink:href="#7" y="8.684"/><use xlink:href="#8" y="10.855"/><use xlink:href="#9" y="13.026"/><use xlink:href="#10" y="15.197"/><use xlink:href="#11" y="17.368"/><use xlink:href="#12" y="21.71"/><use xlink:href="#13" y="23.881"/><use xlink:href="#14" y="28.223"/><use xlink:href="#15" y="30.394"/><use xlink:href="#16" y="32.565"/><use xlink:href="#17" y="34.736"/><use xlink:href="#18" y="36.907"/><use xlink:href="#1" y="39.078"/></svg><svg x="4107"><use xlink:href="#a"/><use xlink:href="#b" x="-.004" y="41.224"/><use xlink:href="#3"/><use xlink:href="#4" y="2.171"/><use xlink:href="#5" y="4.342"/><use xlink:href="#6" y="6.513"/><use xlink:href="#7" y="8.684"/><use xlink:href="#8" y="10.855"/><use xlink:href="#9" y="13.026"/><use xlink:href="#10" y="15.197"/><use xlink:href="#11" y="17.368"/><use xlink:href="#12" y="21.71"/><use xlink:href="#13" y="23.881"/><use xlink:href="#14" y="28.223"/><use xlink:href="#15" y="30.394"/><use xlink:href="#16" y="32.565"/><use xlink:href="#17" y="34.736"/><use xlink:href="#18" y="36.907"/><use xlink:href="#1" y="39.078"/></svg><svg x="4218"><use xlink:href="#a"/><use xlink:href="#b" x="-.004" y="43.395"/><use xlink:href="#3"/><use xlink:href="#4" y="2.171"/><use xlink:href="#5" y="4.342"/><use xlink:href="#6" y="6.513"/><use xlink:href="#7" y="8.684"/><use xlink:href="#8" y="10.855"/><use xlink:href="#9" y="13.026"/><use xlink:href="#10" y="15.197"/><use xlink:href="#11" y="17.368"/><use xlink:href="#12" y="21.71"/><use xlink:href="#13" y="23.881"/><use xlink:href="#14" y="28.223"/><use xlink:href="#15" y="30.394"/><use xlink:href="#16" y="32.565"/><use xlink:href="#17" y="34.736"/><use xlink:href="#18" y="36.907"/><use xlink:href="#1" y="39.078"/><text y="42.919" class="g">exit</text></svg></svg></g></g></svg></svg>